<?xml version="1.0" encoding="utf-8"?>
<!-- Generator: Adobe Illustrator 23.0.1, SVG Export Plug-In . SVG Version: 6.00 Build 0)  -->
<svg version="1.1" id="Layer_1" xmlns="http://www.w3.org/2000/svg" xmlns:xlink="http://www.w3.org/1999/xlink" x="0px" y="0px"
	 viewBox="0 0 1000 1000" style="enable-background:new 0 0 1000 1000;" xml:space="preserve">
<style type="text/css">
	.st0{fill-rule:evenodd;clip-rule:evenodd;fill:#F8991D;}
</style>
<path class="st0" d="M486.2,933.2l-203.1-72.9V562.8L486.2,632V933.2z M523.2,933.2l203.1-72.9V562.8L523.2,632V933.2z M304,540.5
	l204.9-57.9l190.6,61.5l-190.6,64.7L304,540.5z M244.5,517.7L41.3,444.6v-298l203.1,69.2L244.5,517.7z M281.7,517.7l203.1-72.9
	V146.6l-203.1,69.5L281.7,517.7z M62.5,124.9l204.9-58.1L458,128.2l-190.6,64.7L62.5,124.9z M718.6,517.7l-203.1-72.9V146.6
	l203.1,69.2V517.7z M755.6,517.7l203.1-72.9V146.6l-203.1,69.2L755.6,517.7z M536.5,124.9L741.4,67L932,128.5l-190.6,64.7
	L536.5,124.9z"/>
</svg>
